<?xml version="1.0" encoding="UTF-8"?>
<svg id="Capa_1" data-name="Capa 1" xmlns="http://www.w3.org/2000/svg" viewBox="0 0 159 81">
  <defs>
    <style>
      .cls-1 {
        stroke-width: 0px;
      }
    </style>
  </defs>
  <path class="cls-1" d="m17.87,81.01H.16c.35-2.18.83-4.31,1.01-6.45.27-3.1.45-6.23.45-9.34.04-16.49.09-32.98-.03-49.47-.03-4.48-.64-8.95-1.03-13.42-.06-.74-.35-1.46-.57-2.32h18.03c-.35,2.14-.82,4.3-1.04,6.48-.25,2.48-.37,4.98-.37,7.47,0,19.07-.02,38.15.12,57.22.02,3.26.74,6.52,1.14,9.84Z"/>
  <path class="cls-1" d="m133.41,10.83c-.04.47-.1.85-.09,1.24.03,19.68.02,39.36.16,59.04.02,3.29.73,6.58,1.12,9.9h-17.99c1.57-5.21,1.62-10.5,1.61-15.8,0-17.59,0-35.18,0-52.77,0-.49,0-.97,0-1.61-8.71-.2-17.32-.3-25.64,3.08V0h66.4v13.9c-8.26-3.33-16.85-3.28-25.56-3.08Z"/>
  <path class="cls-1" d="m88.57,52.67c-.77-5.94-3.81-10.36-9.2-13-2.04-1-4.27-1.63-6.39-2.42.18-.08.46-.19.74-.31,2.82-1.2,5.32-2.84,7.24-5.28,2.93-3.73,3.47-8.05,3.27-12.6-.37-8.39-4.37-13.93-12.25-16.76-4.14-1.49-8.49-2.03-12.84-2.12C49.81,0,40.46.04,31.12,0c-.37,0-.75.07-1.2.12,1.67,5.63,1.63,11.29,1.65,16.92.04,12.76.07,25.52,0,38.28-.05,8.55.62,17.15-1.58,25.63.35.03.65.07.96.07,9.7,0,19.4.01,29.1-.03,4.42-.02,8.78-.6,13.01-1.91,6.42-1.99,11.44-5.68,13.99-12.12,1.83-4.6,2.16-9.4,1.52-14.28ZM46.55,10.77c5.8.1,11.61-.49,17.11,1.83,2.92,1.23,4.76,3.43,5.19,6.58.58,4.2.4,8.37-3.5,11.02-1.76,1.2-4.03,1.97-6.15,2.24-4.12.53-8.31.56-12.66.82V10.77Zm23.73,55.25c-2.14,2.18-4.91,3.09-7.85,3.61-5.24.92-10.52.51-15.88.61v-26.47c3.7,0,7.35-.18,10.97.06,2.85.19,5.74.66,8.49,1.44,4.28,1.23,6.72,4.26,7.31,8.72.59,4.42.29,8.63-3.04,12.04Z"/>
</svg>