<?xml version="1.0" encoding="UTF-8"?>
<svg id="Capa_1" data-name="Capa 1" xmlns="http://www.w3.org/2000/svg" viewBox="0 0 800 666.67">
  <defs>
    <style>
      .cls-1 {
        fill: #fff;
        stroke-width: 0px;
      }
    </style>
  </defs>
  <g id="Icons">
    <g id="Color-">
      <path id="Twitter" class="cls-1" d="m800,78.92c-29.4,13.39-61.04,22.44-94.24,26.48,33.9-20.8,59.92-53.79,72.17-93.08-31.74,19.26-66.82,33.27-104.29,40.78C643.78,20.42,601.09,0,553.85,0c-90.58,0-164.07,75.36-164.07,168.29,0,13.19,1.41,26,4.23,38.33-136.41-7.03-257.32-73.96-338.32-175.9-14.13,24.94-22.21,53.88-22.21,84.7,0,58.36,28.97,109.88,73.02,140.07-26.86-.82-52.22-8.47-74.38-20.99v2.07c0,81.57,56.58,149.61,131.71,165.02-13.76,3.95-28.27,5.92-43.25,5.92-10.57,0-20.9-1.01-30.9-2.99,20.9,66.84,81.47,115.52,153.31,116.82-56.16,45.17-126.97,72.08-203.84,72.08-13.24,0-26.34-.77-39.16-2.31,72.64,47.67,158.95,75.55,251.59,75.55,301.93,0,466.98-256.41,466.98-478.83,0-7.32-.14-14.64-.42-21.81,32.07-23.74,59.92-53.35,81.85-87.11"/>
    </g>
  </g>
</svg>